<svg width="17" height="17" viewBox="0 0 17 17" fill="none" xmlns="http://www.w3.org/2000/svg">
<path d="M6.66663 10.6666C5.60488 10.6657 4.58696 10.2431 3.83682 9.49172C3.08667 8.74032 2.66574 7.72171 2.66663 6.65996C2.66751 5.59821 3.09014 4.5803 3.84153 3.83015C4.59293 3.08001 5.61154 2.65907 6.67329 2.65996C7.73504 2.66084 8.75295 3.08347 9.5031 3.83487C10.2532 4.58626 10.6742 5.60488 10.6733 6.66663C10.6724 7.72837 10.2498 8.74629 9.49839 9.49643C8.74699 10.2466 7.72837 10.6675 6.66663 10.6666ZM15.4133 12.5866L12.5733 9.74662C13.3101 8.3344 13.517 6.70502 13.1563 5.15348C12.7957 3.60195 11.8915 2.23081 10.6073 1.28832C9.32321 0.345823 7.74404 -0.105731 6.15576 0.0154101C4.56748 0.136551 3.07507 0.822378 1.94872 1.94872C0.822378 3.07507 0.136551 4.56748 0.0154101 6.15576C-0.105731 7.74404 0.345823 9.32321 1.28832 10.6073C2.23081 11.8915 3.60195 12.7957 5.15348 13.1563C6.70502 13.517 8.3344 13.3101 9.74662 12.5733L12.5866 15.4133C12.7697 15.6098 12.9905 15.7674 13.2359 15.8767C13.4812 15.986 13.746 16.0448 14.0146 16.0495C14.2831 16.0543 14.5499 16.0049 14.7989 15.9043C15.0479 15.8037 15.2741 15.654 15.4641 15.4641C15.654 15.2741 15.8037 15.0479 15.9043 14.7989C16.0049 14.5499 16.0543 14.2831 16.0495 14.0146C16.0448 13.746 15.986 13.4812 15.8767 13.2359C15.7674 12.9905 15.6098 12.7697 15.4133 12.5866Z" fill="white"/>
</svg>
