<svg width="18" height="18" viewBox="0 0 18 18" fill="none" xmlns="http://www.w3.org/2000/svg">
<g clip-path="url(#clip0_1119_826)">
<path d="M5.43214 0.622266L5.14286 1.125H1.28571C0.574554 1.125 0 1.62773 0 2.25C0 2.87227 0.574554 3.375 1.28571 3.375H16.7143C17.4254 3.375 18 2.87227 18 2.25C18 1.62773 17.4254 1.125 16.7143 1.125H12.8571L12.5679 0.622266C12.3509 0.239063 11.9049 0 11.4188 0H6.58125C6.09509 0 5.64911 0.239063 5.43214 0.622266ZM16.7143 4.5H1.28571L2.1375 16.418C2.20179 17.3074 3.04554 18 4.06205 18H13.9379C14.9545 18 15.7982 17.3074 15.8625 16.418L16.7143 4.5Z" fill="#5C09E3"/>
</g>
<defs>
<clipPath id="clip0_1119_826">
<rect width="18" height="18" fill="white"/>
</clipPath>
</defs>
</svg>
