<svg width="20" height="20" viewBox="0 0 20 20" fill="none" xmlns="http://www.w3.org/2000/svg">
<g clip-path="url(#clip0_1126_1266)">
<path d="M1.66016 10.8207C1.66016 10.3259 1.70247 9.83761 1.78711 9.35584C1.87174 8.87407 2.01172 8.40532 2.20703 7.94959C2.53255 7.24647 2.95247 6.64751 3.4668 6.15272C3.98112 5.65792 4.60938 5.28683 5.35156 5.03943C5.61198 4.94829 5.87565 4.88318 6.14258 4.84412C6.40951 4.80506 6.67969 4.79855 6.95312 4.82459C7.1875 4.83761 7.42188 4.87342 7.65625 4.93201C7.89062 4.99061 8.11849 5.05897 8.33984 5.13709C8.57422 5.21522 8.80208 5.29334 9.02344 5.37147C9.24479 5.44959 9.46615 5.52772 9.6875 5.60584C9.88281 5.67094 10.0684 5.69048 10.2441 5.66443C10.4199 5.63839 10.599 5.59282 10.7812 5.52772C11.0547 5.43657 11.3281 5.34217 11.6016 5.24451C11.875 5.14686 12.1484 5.05897 12.4219 4.98084C12.6432 4.91574 12.8678 4.8604 13.0957 4.81482C13.3236 4.76925 13.5482 4.75298 13.7695 4.766C14.4857 4.77902 15.153 4.90272 15.7715 5.13709C16.39 5.37147 16.9531 5.75558 17.4609 6.28943C17.513 6.35454 17.5651 6.41964 17.6172 6.48475C17.6693 6.54985 17.7214 6.61495 17.7734 6.68006C17.7995 6.71912 17.8092 6.74516 17.8027 6.75818C17.7962 6.7712 17.7734 6.79074 17.7344 6.81678C17.487 6.97303 17.2493 7.14881 17.0215 7.34412C16.7936 7.53943 16.5885 7.76079 16.4062 8.00818C16.1589 8.3337 15.9733 8.67876 15.8496 9.04334C15.7259 9.40792 15.651 9.79204 15.625 10.1957C15.599 10.5603 15.6087 10.9151 15.6543 11.2601C15.6999 11.6052 15.7943 11.947 15.9375 12.2855C16.1328 12.7413 16.39 13.1416 16.709 13.4867C17.028 13.8318 17.3958 14.1345 17.8125 14.3949C17.8906 14.447 17.9655 14.4926 18.0371 14.5316C18.1087 14.5707 18.1836 14.6032 18.2617 14.6293C18.3008 14.6423 18.3236 14.6586 18.3301 14.6781C18.3366 14.6976 18.3333 14.7269 18.3203 14.766C18.125 15.3519 17.8841 15.9118 17.5977 16.4457C17.3112 16.9795 16.9792 17.4939 16.6016 17.9887C16.4323 18.223 16.2533 18.4509 16.0645 18.6722C15.8757 18.8936 15.6706 19.1019 15.4492 19.2972C15.2409 19.4665 15.0228 19.6097 14.7949 19.7269C14.5671 19.8441 14.3164 19.9222 14.043 19.9613C13.8607 19.9874 13.6784 19.9874 13.4961 19.9613C13.3138 19.9353 13.1315 19.9027 12.9492 19.8637C12.7539 19.8116 12.5651 19.7465 12.3828 19.6683C12.2005 19.5902 12.0117 19.5186 11.8164 19.4535C11.3086 19.2712 10.804 19.1898 10.3027 19.2094C9.80143 19.2289 9.29688 19.3298 8.78906 19.5121C8.56771 19.6032 8.34635 19.6879 8.125 19.766C7.90365 19.8441 7.68229 19.9092 7.46094 19.9613C7.13542 20.0264 6.82617 20.0232 6.5332 19.9515C6.24023 19.8799 5.96354 19.7465 5.70312 19.5512C5.45573 19.3819 5.23112 19.1898 5.0293 18.975C4.82747 18.7601 4.62891 18.5355 4.43359 18.3012C3.88672 17.6241 3.41471 16.9014 3.01758 16.1332C2.62044 15.365 2.30469 14.5512 2.07031 13.6918C1.9401 13.223 1.83919 12.751 1.76758 12.2758C1.69596 11.8005 1.66016 11.3155 1.66016 10.8207ZM14.1602 0.430059C14.1602 0.963913 14.0625 1.46196 13.8672 1.9242C13.6719 2.38644 13.4049 2.81938 13.0664 3.22303C12.8581 3.47042 12.6302 3.69829 12.3828 3.90662C12.1354 4.11495 11.862 4.29074 11.5625 4.43397C11.3411 4.53813 11.11 4.61626 10.8691 4.66834C10.6283 4.72042 10.3776 4.73995 10.1172 4.72693C10.0781 4.72693 10.0521 4.72368 10.0391 4.71717C10.026 4.71066 10.0195 4.68787 10.0195 4.64881C9.99349 4.33631 10.0065 4.03032 10.0586 3.73084C10.1107 3.43136 10.1953 3.13839 10.3125 2.85193C10.638 2.10975 11.071 1.51079 11.6113 1.05506C12.1517 0.59933 12.806 0.273809 13.5742 0.0784965C13.6523 0.0524548 13.7337 0.0329235 13.8184 0.0199027C13.903 0.00688187 13.9844 0.000371456 14.0625 0.000371456C14.0885 0.000371456 14.1113 0.00362666 14.1309 0.0101371C14.1504 0.0166475 14.1602 0.039434 14.1602 0.0784965C14.1602 0.13058 14.1602 0.185918 14.1602 0.244512C14.1602 0.303106 14.1602 0.364955 14.1602 0.430059Z" fill="#232333"/>
</g>
<defs>
<clipPath id="clip0_1126_1266">
<rect width="20" height="20" fill="white" transform="matrix(1 0 0 -1 0 20)"/>
</clipPath>
</defs>
</svg>
