<svg width="146" height="26" viewBox="0 0 146 26" fill="none" xmlns="http://www.w3.org/2000/svg">
<path d="M9.408 15.416H12.6V20.48H9.408V15.416ZM11.016 4.04C15.768 4.04 19.32 6.464 19.32 10.16C19.32 13.904 15.768 16.304 11.016 16.304C6.264 16.304 2.712 13.904 2.712 10.16C2.712 6.464 6.264 4.04 11.016 4.04ZM11.016 6.56C7.968 6.56 5.856 7.904 5.856 10.16C5.856 12.464 7.968 13.784 11.016 13.784C14.064 13.784 16.176 12.464 16.176 10.16C16.176 7.904 14.064 6.56 11.016 6.56ZM0.984 19.976H21.096V22.568H0.984V19.976ZM25.5341 7.352H40.8701V9.872H25.5341V7.352ZM23.0381 11.312H43.1741V13.832H23.0381V11.312ZM25.5341 3.152H28.7021V8.696H25.5341V3.152ZM25.3181 15.176H40.7981V21.08H28.5341V23.048H25.3421V18.824H37.6061V17.576H25.3181V15.176ZM25.3421 22.472H41.4461V24.896H25.3421V22.472ZM52.2683 4.376C55.7723 4.376 58.3883 6.656 58.3883 9.848C58.3883 13.064 55.7723 15.344 52.2683 15.344C48.7883 15.344 46.1243 13.064 46.1243 9.848C46.1243 6.656 48.7883 4.376 52.2683 4.376ZM52.2683 7.112C50.5643 7.112 49.2683 8.12 49.2683 9.848C49.2683 11.6 50.5643 12.608 52.2683 12.608C53.9723 12.608 55.2683 11.6 55.2683 9.848C55.2683 8.12 53.9723 7.112 52.2683 7.112ZM60.4763 2.888H63.6683V25.184H60.4763V2.888ZM45.5963 20.672L45.2123 18.104C49.1243 18.104 54.5723 18.056 59.2523 17.36L59.4923 19.664C54.6683 20.624 49.4363 20.672 45.5963 20.672ZM87.8959 2.936H91.1119V18.896H87.8959V2.936ZM76.3039 22.208H91.6639V24.752H76.3039V22.208ZM76.3039 17.288H79.4959V23.24H76.3039V17.288ZM79.0159 4.328C82.4239 4.328 85.0399 6.68 85.0399 9.968C85.0399 13.232 82.4239 15.608 79.0159 15.608C75.6079 15.608 72.9679 13.232 72.9679 9.968C72.9679 6.68 75.6079 4.328 79.0159 4.328ZM79.0159 7.088C77.3599 7.088 76.0879 8.144 76.0879 9.968C76.0879 11.768 77.3599 12.824 79.0159 12.824C80.6479 12.824 81.9199 11.768 81.9199 9.968C81.9199 8.144 80.6479 7.088 79.0159 7.088ZM110.022 2.912H113.238V25.136H110.022V2.912ZM103.47 5.216H106.638C106.638 12.008 104.334 17.576 96.438 21.392L94.782 18.848C101.166 15.776 103.47 11.744 103.47 5.792V5.216ZM95.958 5.216H104.982V7.736H95.958V5.216ZM121.266 24.68H145.266V0.68H121.266V24.68Z" fill="black"/>
</svg>
