<svg width="28" height="28" viewBox="0 0 28 28" fill="none" xmlns="http://www.w3.org/2000/svg">
<path fill-rule="evenodd" clip-rule="evenodd" d="M9.38629 19.0376C9.57397 19.2116 9.7761 19.2597 9.99267 19.1838L13.0661 17.9106L25.4175 5.2452L22.8801 2.65808L10.5431 15.3087L9.25995 18.4177C9.16611 18.6582 9.20762 18.8655 9.38629 19.0376ZM24.008 1.48666L26.5599 4.08859L27.4893 3.12073C27.8018 2.81354 27.9845 2.39301 27.9982 1.94931C28.0087 1.73731 27.9723 1.52563 27.8917 1.33013C27.811 1.13463 27.6883 0.960386 27.5326 0.820451L27.0814 0.357805C26.9439 0.223698 26.7788 0.122977 26.5983 0.0630793C26.4177 0.00318193 26.2264 -0.0143613 26.0383 0.0117458C25.6146 0.0508798 25.219 0.246139 24.9248 0.56137L24.008 1.48666ZM6.94813 1.72169C5.10537 1.72169 3.33808 2.47233 2.03506 3.80848C0.732032 5.14463 0 6.95684 0 8.84644V20.8752C0 22.7648 0.732032 24.5771 2.03506 25.9132C3.33808 27.2494 5.10537 28 6.94813 28H18.6787C20.5215 28 22.2888 27.2494 23.5918 25.9132C24.8948 24.5771 25.6269 22.7648 25.6269 20.8752V15.7602C25.6269 15.343 25.4652 14.9429 25.1776 14.648C24.8899 14.353 24.4997 14.1872 24.0928 14.1872C23.686 14.1872 23.2958 14.353 23.0081 14.648C22.7205 14.9429 22.5588 15.343 22.5588 15.7602V20.8752C22.5588 21.9305 22.15 22.9425 21.4224 23.6887C20.6947 24.4348 19.7078 24.854 18.6787 24.854H6.94813C5.91905 24.854 4.93213 24.4348 4.20446 23.6887C3.4768 22.9425 3.068 21.9305 3.068 20.8752V8.84644C3.068 7.79121 3.4768 6.7792 4.20446 6.03303C4.93213 5.28687 5.91905 4.86768 6.94813 4.86768H13.0751C13.4819 4.86768 13.8721 4.70196 14.1598 4.40696C14.4475 4.11197 14.6091 3.71187 14.6091 3.29468C14.6091 2.8775 14.4475 2.4774 14.1598 2.18241C13.8721 1.88741 13.4819 1.72169 13.0751 1.72169H6.94813Z" fill="#5C09E3"/>
</svg>
