<svg width="28" height="28" viewBox="0 0 28 28" fill="none" xmlns="http://www.w3.org/2000/svg">
<rect width="28" height="28" fill="white"/>
<path d="M13.7078 8.42806C13.7967 8.47342 13.8969 8.49811 14 8.49811C14.161 8.49811 14.3152 8.43784 14.4298 8.33259C14.4341 8.32781 14.4381 8.32354 14.4417 8.31977C14.4487 8.31241 14.4555 8.30564 14.4603 8.30089L14.4697 8.29069L15.304 7.37594L15.3138 7.36519L15.3236 7.35564C16.5201 6.05368 18.3306 5.45758 20.087 5.78521L20.0871 5.78523C22.4952 6.23496 24.25 8.29631 24.25 10.7087V10.8596C24.25 12.3064 23.6309 13.689 22.5482 14.6697L14.3357 22.1111L14 22.4153L13.6643 22.1111L5.45185 14.6697C5.45182 14.6697 5.4518 14.6696 5.45177 14.6696C4.36905 13.6889 3.75 12.3064 3.75 10.8596V10.7087C3.75 8.29118 5.50535 6.2348 7.91769 5.78521L13.7078 8.42806ZM13.7078 8.42806V8.41969L13.5405 8.29727L13.5303 8.28611L12.696 7.37137L12.6862 7.3606L12.681 7.35558C11.4797 6.04896 9.67385 5.45765 7.91778 5.7852L13.7078 8.42806ZM15.2812 7.40348C15.2784 7.40714 15.2742 7.413 15.2696 7.41942M15.2812 7.40348C15.2813 7.4034 15.2813 7.40333 15.2814 7.40326L15.2696 7.41942M15.2812 7.40348C15.2811 7.40358 15.2811 7.40369 15.281 7.40379C15.2783 7.40734 15.2741 7.41309 15.2696 7.41942M15.2812 7.40348C15.2838 7.40025 15.2875 7.39561 15.2908 7.39166M15.2696 7.41942L15.2908 7.39166M15.2908 7.39166C15.2927 7.3893 15.2945 7.38716 15.2958 7.38566L15.2956 7.3858C15.2944 7.38722 15.2927 7.38932 15.2908 7.39166ZM15.6882 7.21078C15.6881 7.21077 15.6879 7.21076 15.6878 7.21075C15.6583 7.21114 15.629 7.21325 15.6181 7.21411M15.6882 7.21078L15.6138 7.21446L15.6139 7.21445C15.6144 7.21441 15.6159 7.21429 15.6181 7.21411M15.6882 7.21078C15.6586 7.21115 15.629 7.21325 15.6181 7.21411M15.6882 7.21078L15.6181 7.21411M12.9222 23.0871L12.9222 23.087L12.9184 23.0837L12.8029 22.98L12.8012 22.9785L4.59042 15.5385L4.59036 15.5385C3.25463 14.3286 2.5 12.6331 2.5 10.8596V10.7087C2.5 7.73839 4.66332 5.17534 7.67899 4.61406L7.67998 4.61387C9.39437 4.2912 11.1481 4.67761 12.5441 5.63625C12.9368 5.90888 13.3019 6.22294 13.6314 6.58252L14.004 6.98917L14.3722 6.57853C14.5519 6.37825 14.7452 6.19367 14.9529 6.0205L14.9529 6.02051L14.9553 6.01853C15.1174 5.88172 15.2821 5.75502 15.4539 5.63766L15.455 5.6369C16.8511 4.67779 18.6057 4.29088 20.3212 4.60952C23.3364 5.1708 25.5 7.73804 25.5 10.7087V10.8596C25.5 12.6331 24.7454 14.3286 23.4096 15.5385L23.4096 15.5385L15.1988 22.9785L15.1971 22.98L15.0816 23.0836L15.0803 23.0849C14.7876 23.3495 14.4008 23.5 14 23.5C13.5965 23.5 13.2117 23.3524 12.9222 23.0871ZM15.8422 7.25926C15.904 7.28545 15.9726 7.32106 16.029 7.36327C16.0289 7.36334 16.0288 7.36341 16.0288 7.36348C15.9724 7.32123 15.9039 7.28552 15.8422 7.25926ZM15.1961 7.5696C15.1774 7.6722 15.2201 7.91555 15.2984 8.03837C15.2981 8.03815 15.2979 8.03793 15.2976 8.0377C15.2197 7.91554 15.1773 7.67228 15.1959 7.57005C15.196 7.5699 15.196 7.56975 15.1961 7.5696ZM15.2531 7.4435C15.2451 7.45696 15.2319 7.48357 15.2195 7.5114C15.2318 7.48366 15.2449 7.45722 15.2528 7.44393C15.2529 7.44379 15.253 7.44365 15.2531 7.4435Z" fill="#272727" stroke="#272727"/>
</svg>
