<svg width="26" height="26" viewBox="0 0 26 26" fill="none" xmlns="http://www.w3.org/2000/svg">
<path d="M3.27775 20.1538C3.34698 19.9012 3.19525 19.5498 3.05044 19.2965C3.00555 19.2209 2.95663 19.1477 2.9039 19.0773C1.66194 17.1938 0.999981 14.9873 1.00006 12.7312C0.979291 6.25519 6.34928 1 12.9896 1C18.7808 1 23.6154 5.01192 24.7444 10.3375C24.9139 11.1271 24.9995 11.9323 25 12.7398C25 19.225 19.8371 24.5627 13.1968 24.5627C12.1404 24.5627 10.716 24.2973 9.93888 24.0798C9.16177 23.8623 8.38581 23.5738 8.18562 23.4965C7.98068 23.4178 7.76304 23.3774 7.5435 23.3771C7.30411 23.3763 7.06703 23.424 6.84658 23.5173L2.93275 24.9296C2.84722 24.9666 2.75657 24.9903 2.6639 25C2.5906 24.9998 2.51808 24.985 2.45052 24.9566C2.38296 24.9282 2.32171 24.8866 2.27031 24.8344C2.21892 24.7821 2.17839 24.7202 2.15108 24.6521C2.12377 24.5841 2.11022 24.5114 2.11121 24.4381C2.11602 24.3738 2.12763 24.3101 2.14583 24.2483L3.27775 20.1538Z" stroke="#272727" stroke-width="2" stroke-miterlimit="10" stroke-linecap="round"/>
<path d="M3.27775 20.1538C3.34698 19.9012 3.19525 19.5498 3.05044 19.2965C3.00555 19.2209 2.95663 19.1477 2.9039 19.0773C1.66194 17.1938 0.999981 14.9873 1.00006 12.7312C0.979291 6.25519 6.34928 1 12.9896 1C18.7808 1 23.6154 5.01192 24.7444 10.3375C24.9139 11.1271 24.9995 11.9323 25 12.7398C25 19.225 19.8371 24.5627 13.1968 24.5627C12.1404 24.5627 10.716 24.2973 9.93888 24.0798C9.16177 23.8623 8.38581 23.5738 8.18562 23.4965C7.98068 23.4178 7.76304 23.3774 7.5435 23.3771C7.30411 23.3763 7.06703 23.424 6.84658 23.5173L2.93275 24.9296C2.84722 24.9666 2.75657 24.9903 2.6639 25C2.5906 24.9998 2.51808 24.985 2.45052 24.9566C2.38296 24.9282 2.32171 24.8866 2.27031 24.8344C2.21892 24.7821 2.17839 24.7202 2.15108 24.6521C2.12377 24.5841 2.11022 24.5114 2.11121 24.4381C2.11602 24.3738 2.12763 24.3101 2.14583 24.2483L3.27775 20.1538Z" stroke="black" stroke-opacity="0.2" stroke-width="2" stroke-miterlimit="10" stroke-linecap="round"/>
<path d="M14 13.5C14 13.7761 13.7761 14 13.5 14C13.2239 14 13 13.7761 13 13.5C13 13.2239 13.2239 13 13.5 13C13.7761 13 14 13.2239 14 13.5Z" fill="#272727"/>
<path d="M14 13.5C14 13.7761 13.7761 14 13.5 14C13.2239 14 13 13.7761 13 13.5C13 13.2239 13.2239 13 13.5 13C13.7761 13 14 13.2239 14 13.5Z" stroke="#272727" stroke-width="2"/>
<path d="M14 13.5C14 13.7761 13.7761 14 13.5 14C13.2239 14 13 13.7761 13 13.5C13 13.2239 13.2239 13 13.5 13C13.7761 13 14 13.2239 14 13.5Z" stroke="black" stroke-opacity="0.2" stroke-width="2"/>
<path d="M8 13.5C8 13.7761 7.77614 14 7.5 14C7.22386 14 7 13.7761 7 13.5C7 13.2239 7.22386 13 7.5 13C7.77614 13 8 13.2239 8 13.5Z" fill="#272727"/>
<path d="M8 13.5C8 13.7761 7.77614 14 7.5 14C7.22386 14 7 13.7761 7 13.5C7 13.2239 7.22386 13 7.5 13C7.77614 13 8 13.2239 8 13.5Z" stroke="#272727" stroke-width="2"/>
<path d="M8 13.5C8 13.7761 7.77614 14 7.5 14C7.22386 14 7 13.7761 7 13.5C7 13.2239 7.22386 13 7.5 13C7.77614 13 8 13.2239 8 13.5Z" stroke="black" stroke-opacity="0.2" stroke-width="2"/>
<path d="M20 13.5C20 13.7761 19.7761 14 19.5 14C19.2239 14 19 13.7761 19 13.5C19 13.2239 19.2239 13 19.5 13C19.7761 13 20 13.2239 20 13.5Z" fill="#272727"/>
<path d="M20 13.5C20 13.7761 19.7761 14 19.5 14C19.2239 14 19 13.7761 19 13.5C19 13.2239 19.2239 13 19.5 13C19.7761 13 20 13.2239 20 13.5Z" stroke="#272727" stroke-width="2"/>
<path d="M20 13.5C20 13.7761 19.7761 14 19.5 14C19.2239 14 19 13.7761 19 13.5C19 13.2239 19.2239 13 19.5 13C19.7761 13 20 13.2239 20 13.5Z" stroke="black" stroke-opacity="0.2" stroke-width="2"/>
</svg>
