<svg width="28" height="28" viewBox="0 0 28 28" fill="none" xmlns="http://www.w3.org/2000/svg">
<rect width="28" height="28" fill="white"/>
<path d="M24.2857 25.0769V13.0769M3.71429 13.0769V25.0769M2 26H26M15.7143 26V17.2308C15.7143 16.8635 15.8497 16.5114 16.0909 16.2517C16.332 15.992 16.659 15.8462 17 15.8462H20.4286C20.7696 15.8462 21.0966 15.992 21.3377 16.2517C21.5788 16.5114 21.7143 16.8635 21.7143 17.2308V26M20.7752 2H7.22482C6.0575 2 5.00321 2.69231 4.55 3.75731L2.23036 9.21154C1.44929 11.0467 2.74625 13.126 4.75839 13.1923H4.86554C6.54768 13.1923 7.91107 11.7396 7.91107 10.179C7.91107 11.7367 9.275 13.1923 10.9571 13.1923C12.6393 13.1923 14 11.8435 14 10.179C14 11.7367 15.3634 13.1923 17.0455 13.1923C18.7277 13.1923 20.0916 11.8435 20.0916 10.179C20.0916 11.8435 21.455 13.1923 23.1371 13.1923H23.2416C25.2538 13.1248 26.5507 11.0456 25.7696 9.21154L23.45 3.75731C22.9968 2.69231 21.9425 2 20.7752 2ZM7.57143 15.8462H11.8571C12.1981 15.8462 12.5252 15.992 12.7663 16.2517C13.0074 16.5114 13.1429 16.8635 13.1429 17.2308V22.3077H6.28571V17.2308C6.28571 16.8635 6.42117 16.5114 6.66229 16.2517C6.90341 15.992 7.23044 15.8462 7.57143 15.8462Z" stroke="#272727" stroke-width="2" stroke-linecap="round" stroke-linejoin="round"/>
</svg>
