<svg width="28" height="28" viewBox="0 0 28 28" fill="none" xmlns="http://www.w3.org/2000/svg">
<rect width="28" height="28" fill="white"/>
<path d="M18.2857 8C18.2857 7.00544 17.8342 6.05161 17.0305 5.34835C16.2267 4.64509 15.1366 4.25 14 4.25C12.8634 4.25 11.7733 4.64509 10.9695 5.34835C10.1658 6.05161 9.71429 7.00544 9.71429 8C9.71429 8.99456 10.1658 10.4484 10.9695 11.1517C11.7733 11.8549 12.8634 12.25 14 12.25C15.1366 12.25 16.2267 11.8549 17.0305 11.1517C17.8342 10.4484 18.2857 8.99456 18.2857 8ZM7.14286 8C7.14286 6.4087 7.8653 4.88258 9.15127 3.75736C10.4372 2.63214 12.1814 2 14 2C15.8186 2 17.5628 2.63214 18.8487 3.75736C20.1347 4.88258 20.8571 6.4087 20.8571 8C20.8571 9.5913 20.1347 11.6174 18.8487 12.7426C17.5628 13.8679 15.8186 14.5 14 14.5C12.1814 14.5 10.4372 13.8679 9.15127 12.7426C7.8653 11.6174 7.14286 9.5913 7.14286 8ZM4.64107 23.75H23.3643C22.8875 20.7828 19.9732 18.5 16.4536 18.5H11.5571C8.0375 18.5 5.12321 20.7828 4.64643 23.75H4.64107ZM2 24.6078C2 19.9906 6.275 16.25 11.5518 16.25H16.4482C21.725 16.25 26 19.9906 26 24.6078C26 25.3766 25.2875 26 24.4089 26H3.59107C2.7125 26 2 25.3766 2 24.6078Z" fill="#272727"/>
</svg>
