<svg width="28" height="28" viewBox="0 0 28 28" fill="none" xmlns="http://www.w3.org/2000/svg">
<rect width="28" height="28" fill="white"/>
<path d="M6.4225 23H21.5775C21.8236 23 22.0656 22.932 22.2796 22.8027C22.4937 22.6734 22.6725 22.4872 22.7988 22.2624C22.925 22.0375 22.9942 21.7817 22.9996 21.5199C23.0051 21.258 22.9467 20.9992 22.83 20.7686L15.2529 5.79616C14.7154 4.73461 13.2846 4.73461 12.7471 5.79616L5.17003 20.7686C5.05334 20.9992 4.99488 21.258 5.00035 21.5199C5.00582 21.7817 5.07504 22.0375 5.20125 22.2624C5.32745 22.4872 5.50632 22.6734 5.72038 22.8027C5.93444 22.932 6.17636 23 6.4225 23Z" stroke="#272727" stroke-width="2" stroke-linecap="round" stroke-linejoin="round"/>
<path d="M13.7443 11.133L13.9995 16.9044L14.2543 11.1354C14.2559 11.0985 14.2503 11.0617 14.2381 11.0272C14.2258 10.9926 14.2071 10.9611 14.183 10.9345C14.1589 10.908 14.13 10.8869 14.098 10.8727C14.0659 10.8584 14.0315 10.8512 13.9969 10.8516C13.9628 10.8519 13.9291 10.8595 13.8978 10.874C13.8665 10.8884 13.8383 10.9094 13.8147 10.9356C13.7912 10.9618 13.7728 10.9928 13.7608 11.0267C13.7487 11.0607 13.7431 11.0968 13.7443 11.133Z" stroke="#272727" stroke-width="2" stroke-linecap="round" stroke-linejoin="round"/>
<path d="M13.9986 20.1813C13.9288 20.1813 13.8577 20.1594 13.7943 20.1143C13.7304 20.0689 13.6762 20.0011 13.643 19.9159C13.6098 19.8305 13.6007 19.735 13.6179 19.6425C13.6352 19.5501 13.6772 19.4692 13.7342 19.4086C13.7908 19.3483 13.8592 19.3111 13.9286 19.2964C13.9978 19.2818 14.0699 19.2889 14.1372 19.3186C14.205 19.3485 14.268 19.4014 14.3145 19.4755C14.3612 19.5498 14.3878 19.6403 14.3878 19.7352C14.3878 19.8632 14.3397 19.9801 14.263 20.0618C14.1873 20.1423 14.0915 20.1813 13.9986 20.1813Z" fill="black" stroke="#272727"/>
</svg>
