<svg width="16" height="7" viewBox="0 0 16 7" fill="none" xmlns="http://www.w3.org/2000/svg">
<path d="M13.4382 0.305082L8 4.06543L2.5618 0.305082C2.27895 0.110754 1.89846 0.0018854 1.50215 0.0018854C1.10584 0.0018854 0.725354 0.110754 0.442503 0.305082C0.302448 0.400701 0.191143 0.514976 0.115147 0.641173C0.0391512 0.76737 0 0.902937 0 1.03989C0 1.17684 0.0391512 1.31241 0.115147 1.43861C0.191143 1.5648 0.302448 1.67908 0.442503 1.7747L8 7L15.5575 1.7747C15.6976 1.67908 15.8089 1.5648 15.8849 1.43861C15.9608 1.31241 16 1.17684 16 1.03989C16 0.902937 15.9608 0.76737 15.8849 0.641173C15.8089 0.514976 15.6976 0.400701 15.5575 0.305082C15.2755 0.109636 14.8947 0 14.4978 0C14.101 0 13.7202 0.109636 13.4382 0.305082Z" fill="#111111"/>
</svg>
