<svg width="16" height="7" viewBox="0 0 16 7" fill="none" xmlns="http://www.w3.org/2000/svg">
<path d="M2.5618 6.69492L8 2.93457L13.4382 6.69492C13.7211 6.88925 14.1015 6.99811 14.4978 6.99811C14.8942 6.99811 15.2746 6.88925 15.5575 6.69492C15.6976 6.5993 15.8089 6.48502 15.8849 6.35883C15.9608 6.23263 16 6.09706 16 5.96011C16 5.82316 15.9608 5.68759 15.8849 5.56139C15.8089 5.4352 15.6976 5.32092 15.5575 5.2253L8 0L0.442503 5.2253C0.302448 5.32092 0.191144 5.4352 0.115148 5.56139C0.0391515 5.68759 0 5.82316 0 5.96011C0 6.09706 0.0391515 6.23263 0.115148 6.35883C0.191144 6.48502 0.302448 6.5993 0.442503 6.69492C0.724516 6.89036 1.10532 7 1.50215 7C1.89899 7 2.27979 6.89036 2.5618 6.69492Z" fill="#111111"/>
</svg>
