<svg width="34" height="34" viewBox="0 0 34 34" fill="none" xmlns="http://www.w3.org/2000/svg">
<circle cx="17" cy="17" r="17" fill="#EFEFF0"/>
<path d="M15.6666 19.6666C14.6049 19.6657 13.587 19.2431 12.8368 18.4917C12.0867 17.7403 11.6657 16.7217 11.6666 15.66C11.6675 14.5982 12.0901 13.5803 12.8415 12.8302C13.5929 12.08 14.6115 11.6591 15.6733 11.66C16.735 11.6608 17.753 12.0835 18.5031 12.8349C19.2532 13.5863 19.6742 14.6049 19.6733 15.6666C19.6724 16.7284 19.2498 17.7463 18.4984 18.4964C17.747 19.2466 16.7284 19.6675 15.6666 19.6666ZM24.4133 21.5866L21.5733 18.7466C22.3101 17.3344 22.517 15.705 22.1563 14.1535C21.7957 12.6019 20.8915 11.2308 19.6073 10.2883C18.3232 9.34582 16.744 8.89427 15.1558 9.01541C13.5675 9.13655 12.0751 9.82238 10.9487 10.9487C9.82238 12.0751 9.13655 13.5675 9.01541 15.1558C8.89427 16.744 9.34582 18.3232 10.2883 19.6073C11.2308 20.8915 12.6019 21.7957 14.1535 22.1563C15.705 22.517 17.3344 22.3101 18.7466 21.5733L21.5866 24.4133C21.7697 24.6098 21.9905 24.7674 22.2359 24.8767C22.4812 24.986 22.746 25.0448 23.0146 25.0495C23.2831 25.0543 23.5499 25.0049 23.7989 24.9043C24.0479 24.8037 24.2741 24.654 24.4641 24.4641C24.654 24.2741 24.8037 24.0479 24.9043 23.7989C25.0049 23.5499 25.0543 23.2831 25.0495 23.0146C25.0448 22.746 24.986 22.4812 24.8767 22.2359C24.7674 21.9905 24.6098 21.7697 24.4133 21.5866Z" fill="#5C09E3"/>
</svg>
