<svg width="17" height="17" viewBox="0 0 17 17" fill="none" xmlns="http://www.w3.org/2000/svg">
<path d="M10.375 12.25V14.125C10.375 14.6223 10.2104 15.0992 9.91735 15.4508C9.62433 15.8025 9.2269 16 8.8125 16H2.5625C2.1481 16 1.75067 15.8025 1.45765 15.4508C1.16462 15.0992 1 14.6223 1 14.125V2.875C1 2.37772 1.16462 1.90081 1.45765 1.54917C1.75067 1.19754 2.1481 1 2.5625 1H8.5C9.36289 1 10.375 1.83953 10.375 2.875V4.75M12.875 12.25L16 8.5L12.875 4.75M5.375 8.5H15.375" stroke="black" stroke-width="1.5" stroke-linecap="round" stroke-linejoin="round"/>
</svg>
