<svg width="10" height="10" viewBox="0 0 10 10" fill="none" xmlns="http://www.w3.org/2000/svg">
<path d="M4.15512 6.64675C3.49375 6.6462 2.85969 6.38294 2.39241 5.91489C1.92514 5.44684 1.66294 4.81234 1.66349 4.15097C1.66404 3.4896 1.9273 2.85553 2.39535 2.38826C2.8634 1.92099 3.4979 1.65879 4.15928 1.65934C4.82065 1.65989 5.45471 1.92315 5.92198 2.3912C6.38925 2.85925 6.65146 3.49375 6.6509 4.15512C6.65035 4.81649 6.3871 5.45056 5.91905 5.91783C5.451 6.3851 4.81649 6.6473 4.15512 6.64675ZM9.60349 7.84273L7.83443 6.07368C8.29341 5.19399 8.42225 4.17904 8.19762 3.21258C7.97298 2.24611 7.40973 1.39202 6.60983 0.804935C5.80993 0.217849 4.82625 -0.0634272 3.8369 0.0120323C2.84755 0.0874917 1.91792 0.514699 1.21631 1.21631C0.514699 1.91792 0.0874917 2.84755 0.0120323 3.8369C-0.0634272 4.82625 0.217849 5.80993 0.804935 6.60983C1.39202 7.40973 2.24611 7.97298 3.21258 8.19762C4.17904 8.42225 5.19399 8.29341 6.07368 7.83443L7.84273 9.60349C7.95679 9.72589 8.09433 9.82406 8.24714 9.89215C8.39996 9.96024 8.56493 9.99685 8.73221 9.99981C8.89948 10.0028 9.06564 9.97199 9.22077 9.90933C9.37589 9.84667 9.51681 9.75341 9.63511 9.63511C9.75341 9.51681 9.84667 9.37589 9.90933 9.22077C9.97199 9.06564 10.0028 8.89948 9.99981 8.73221C9.99685 8.56493 9.96024 8.39996 9.89215 8.24714C9.82406 8.09433 9.72589 7.95679 9.60349 7.84273Z" fill="#5C09E3"/>
</svg>
