<svg width="14" height="14" viewBox="0 0 14 14" fill="none" xmlns="http://www.w3.org/2000/svg">
<g clip-path="url(#clip0_1083_1561)">
<path d="M12.8379 7C12.8379 6.19792 12.6829 5.44141 12.373 4.73047C12.0723 4.01953 11.6576 3.39974 11.1289 2.87109C10.6003 2.34245 9.98047 1.92773 9.26953 1.62695C8.55859 1.31706 7.80208 1.16211 7 1.16211C6.19792 1.16211 5.44141 1.31706 4.73047 1.62695C4.01953 1.92773 3.39974 2.34245 2.87109 2.87109C2.34245 3.39974 1.92773 4.01953 1.62695 4.73047C1.31706 5.44141 1.16211 6.19792 1.16211 7C1.16211 7.80208 1.31706 8.55859 1.62695 9.26953C1.92773 9.98047 2.34245 10.6003 2.87109 11.1289C3.39974 11.6576 4.01953 12.0723 4.73047 12.373C5.44141 12.6829 6.19792 12.8379 7 12.8379C7.80208 12.8379 8.55859 12.6829 9.26953 12.373C9.98047 12.0723 10.6003 11.6576 11.1289 11.1289C11.6576 10.6003 12.0723 9.98047 12.373 9.26953C12.6829 8.55859 12.8379 7.80208 12.8379 7ZM14 7C14 7.96615 13.8177 8.87305 13.4531 9.7207C13.0885 10.5775 12.5895 11.3226 11.9561 11.9561C11.3226 12.5895 10.5775 13.0885 9.7207 13.4531C8.87305 13.8177 7.96615 14 7 14C6.03385 14 5.12695 13.8177 4.2793 13.4531C3.42253 13.0885 2.67741 12.5895 2.04395 11.9561C1.41048 11.3226 0.911458 10.5775 0.546875 9.7207C0.182292 8.87305 0 7.96615 0 7C0 6.03385 0.182292 5.12695 0.546875 4.2793C0.911458 3.42253 1.41048 2.67741 2.04395 2.04395C2.67741 1.41048 3.42253 0.911458 4.2793 0.546875C5.12695 0.182292 6.03385 0 7 0C7.96615 0 8.87305 0.182292 9.7207 0.546875C10.5775 0.911458 11.3226 1.41048 11.9561 2.04395C12.5895 2.67741 13.0885 3.42253 13.4531 4.2793C13.8177 5.12695 14 6.03385 14 7ZM7.75195 4.00586C7.75195 4.20638 7.67904 4.37956 7.5332 4.52539C7.38737 4.67122 7.20964 4.74414 7 4.74414C6.79036 4.74414 6.61263 4.67122 6.4668 4.52539C6.32096 4.37956 6.24805 4.20638 6.24805 4.00586C6.24805 3.79622 6.32096 3.61849 6.4668 3.47266C6.61263 3.32682 6.79036 3.25391 7 3.25391C7.20964 3.25391 7.38737 3.32682 7.5332 3.47266C7.67904 3.61849 7.75195 3.79622 7.75195 4.00586ZM7.65625 6.64453V10.3496C7.65625 10.5319 7.59245 10.6868 7.46484 10.8145C7.33724 10.9421 7.18229 11.0059 7 11.0059C6.81771 11.0059 6.66276 10.9421 6.53516 10.8145C6.40755 10.6868 6.34375 10.5319 6.34375 10.3496V6.64453C6.34375 6.47135 6.40755 6.32096 6.53516 6.19336C6.66276 6.06576 6.81771 6.00195 7 6.00195C7.18229 6.00195 7.33724 6.06576 7.46484 6.19336C7.59245 6.32096 7.65625 6.47135 7.65625 6.64453Z" fill="#131619"/>
</g>
<defs>
<clipPath id="clip0_1083_1561">
<rect width="14" height="14" fill="white" transform="matrix(1 0 0 -1 0 14)"/>
</clipPath>
</defs>
</svg>
