<svg width="48" height="48" viewBox="0 0 48 48" fill="none" xmlns="http://www.w3.org/2000/svg">
<path d="M48 24C48 37.2548 37.2548 48 24 48C10.7452 48 0 37.2548 0 24C0 10.7452 10.7452 0 24 0C37.2548 0 48 10.7452 48 24Z" fill="#5C09E3"/>
<path d="M32.3132 15.1865L21.3913 26.1083M13.2407 22.1212L31.9907 15.0247C32.0583 14.9989 32.132 14.9931 32.2028 15.0082C32.2737 15.0233 32.3386 15.0586 32.3898 15.1098C32.441 15.161 32.4763 15.226 32.4914 15.2968C32.5065 15.3676 32.5008 15.4413 32.4749 15.509L25.3785 34.259C25.3503 34.3302 25.3009 34.391 25.2371 34.4333C25.1732 34.4757 25.098 34.4974 25.0214 34.4957C24.9448 34.4939 24.8706 34.4688 24.8087 34.4236C24.7469 34.3785 24.7003 34.3154 24.6754 34.243L21.516 26.4576C21.4792 26.3472 21.4172 26.247 21.3349 26.1647C21.2527 26.0825 21.1524 26.0205 21.0421 25.9837L13.2566 22.8271C13.1833 22.8027 13.1193 22.7562 13.0733 22.694C13.0274 22.6319 13.0018 22.557 13.0001 22.4797C12.9984 22.4025 13.0205 22.3265 13.0636 22.2623C13.1067 22.1982 13.1685 22.1488 13.2407 22.1212Z" stroke="white" stroke-width="2" stroke-linecap="round" stroke-linejoin="round"/>
</svg>
