<svg width="48" height="48" viewBox="0 0 48 48" fill="none" xmlns="http://www.w3.org/2000/svg">
<path d="M48 24C48 37.2548 37.2548 48 24 48C10.7452 48 0 37.2548 0 24C0 10.7452 10.7452 0 24 0C37.2548 0 48 10.7452 48 24Z" fill="#5C09E3"/>
<path d="M17.7693 25.2525L23.5073 30.6218C23.7454 30.8446 24.0598 30.9687 24.3868 30.9687C24.7139 30.9687 25.0283 30.8446 25.2664 30.6218L31.0044 25.2525C31.9697 24.3518 32.5159 23.0883 32.5159 21.7675V21.5829C32.5159 19.3581 30.9123 17.4612 28.7244 17.0952C27.2765 16.8534 25.8031 17.3276 24.7679 18.3651L24.3868 18.7471L24.0058 18.3651C22.9706 17.3276 21.4972 16.8534 20.0492 17.0952C17.8614 17.4612 16.2578 19.3581 16.2578 21.5829V21.7675C16.2578 23.0883 16.804 24.3518 17.7693 25.2525Z" fill="white"/>
</svg>
