<svg width="20" height="18" viewBox="0 0 20 18" fill="none" xmlns="http://www.w3.org/2000/svg">
<path d="M10.001 18C9.6922 17.9998 9.39066 17.909 9.13554 17.7394C5.35655 15.2384 3.71995 13.5211 2.81799 12.4515C0.894839 10.1671 -0.0263508 7.82075 0.00057328 5.28039C0.0303821 2.36882 2.42567 0 5.3402 0C7.30182 0 8.70572 0.996459 9.58075 1.91324C9.63468 1.96884 9.69967 2.01313 9.77176 2.0434C9.84384 2.07368 9.92151 2.08929 10 2.08929C10.0785 2.08929 10.1562 2.07368 10.2282 2.0434C10.3003 2.01313 10.3653 1.96884 10.4192 1.91324C11.2952 0.996459 12.6982 0 14.6598 0C17.5743 0 19.9696 2.36882 19.9994 5.28039C20.0264 7.82075 19.1042 10.1671 17.182 12.4515C16.2801 13.5239 14.6435 15.2384 10.8645 17.7394C10.6099 17.9086 10.3091 17.9994 10.001 18Z" fill="#464646"/>
</svg>
