<svg width="20" height="17" viewBox="0 0 20 17" fill="none" xmlns="http://www.w3.org/2000/svg">
<path d="M2.92773 6.91406V15.4241C2.92773 15.5771 2.99546 15.7238 3.11602 15.832C3.23658 15.9402 3.4001 16.001 3.57059 16.001H7.42773V11.0969C7.42773 10.8674 7.52933 10.6473 7.71017 10.485C7.89101 10.3227 8.13628 10.2315 8.39202 10.2315H11.6063C11.8621 10.2315 12.1073 10.3227 12.2882 10.485C12.469 10.6473 12.5706 10.8674 12.5706 11.0969V16.001H16.4277C16.5982 16.001 16.7617 15.9402 16.8823 15.832C17.0029 15.7238 17.0706 15.5771 17.0706 15.4241V6.91406" fill="#464646"/>
<path d="M2.92773 6.91406V15.4241C2.92773 15.5771 2.99546 15.7238 3.11602 15.832C3.23658 15.9402 3.4001 16.001 3.57059 16.001H7.42773V11.0969C7.42773 10.8674 7.52933 10.6473 7.71017 10.485C7.89101 10.3227 8.13628 10.2315 8.39202 10.2315H11.6063C11.8621 10.2315 12.1073 10.3227 12.2882 10.485C12.469 10.6473 12.5706 10.8674 12.5706 11.0969V16.001H16.4277C16.5982 16.001 16.7617 15.9402 16.8823 15.832C17.0029 15.7238 17.0706 15.5771 17.0706 15.4241V6.91406" stroke="#464646" stroke-linecap="round" stroke-linejoin="round"/>
<path d="M19 8.49971L10.4375 1.14361C10.2367 0.953214 9.76696 0.951051 9.56246 1.14361L1 8.49971M15.7857 5.72314V1.57632H13.8571V4.06441" fill="#464646"/>
<path d="M19 8.49971L10.4375 1.14361C10.2367 0.953214 9.76696 0.951051 9.56246 1.14361L1 8.49971M15.7857 5.72314V1.57632H13.8571V4.06441" stroke="#464646" stroke-linecap="round" stroke-linejoin="round"/>
</svg>
