<svg width="20" height="20" viewBox="0 0 20 20" fill="none" xmlns="http://www.w3.org/2000/svg">
<path d="M10.147 10.2591L8.515 6.01639C8.49051 5.95272 8.4473 5.89796 8.39107 5.85934C8.33483 5.82072 8.26822 5.80005 8.2 5.80005C8.13178 5.80005 8.06517 5.82072 8.00893 5.85934C7.9527 5.89796 7.90949 5.95272 7.885 6.01639L6.253 10.2591C6.23605 10.3032 6.21003 10.3433 6.17664 10.3767C6.14324 10.4101 6.10321 10.4361 6.05913 10.453L1.81637 12.085C1.75271 12.1095 1.69795 12.1527 1.65933 12.209C1.62071 12.2652 1.60004 12.3318 1.60004 12.4C1.60004 12.4682 1.62071 12.5349 1.65933 12.5911C1.69795 12.6473 1.75271 12.6905 1.81637 12.715L6.05913 14.347C6.10321 14.364 6.14324 14.39 6.17664 14.4234C6.21003 14.4568 6.23605 14.4968 6.253 14.5409L7.885 18.7837C7.90949 18.8473 7.9527 18.9021 8.00893 18.9407C8.06517 18.9793 8.13178 19 8.2 19C8.26822 19 8.33483 18.9793 8.39107 18.9407C8.4473 18.9021 8.49051 18.8473 8.515 18.7837L10.147 14.5409C10.164 14.4968 10.19 14.4568 10.2234 14.4234C10.2568 14.39 10.2968 14.364 10.3409 14.347L14.5836 12.715C14.6473 12.6905 14.702 12.6473 14.7407 12.5911C14.7793 12.5349 14.8 12.4682 14.8 12.4C14.8 12.3318 14.7793 12.2652 14.7407 12.209C14.702 12.1527 14.6473 12.1095 14.5836 12.085L10.3409 10.453C10.2968 10.4361 10.2568 10.4101 10.2234 10.3767C10.19 10.3433 10.164 10.3032 10.147 10.2591ZM4.45 2.95L3.7 1L2.95 2.95L1 3.70001L2.95 4.45001L3.7 6.40001L4.45 4.45001L6.4 3.70001L4.45 2.95ZM16.4001 4.79988L15.4 2.2L14.3999 4.79988L11.8 5.80001L14.3999 6.80014L15.4 9.40002L16.4001 6.80014L19 5.80001L16.4001 4.79988Z" fill="#464646" stroke="#464646" stroke-linecap="round" stroke-linejoin="round"/>
</svg>
