<svg width="20" height="20" viewBox="0 0 20 20" fill="none" xmlns="http://www.w3.org/2000/svg">
<path d="M19.4711 18.841L19.4712 18.8413C19.4982 18.9137 19.5062 18.9902 19.4953 19.0649C19.4844 19.1398 19.4544 19.213 19.4059 19.2783C19.3572 19.3437 19.2908 19.3996 19.2105 19.4391C19.1302 19.4786 19.0396 19.4999 18.9466 19.5H1.05339C0.960382 19.4999 0.869789 19.4786 0.789478 19.4391C0.70925 19.3996 0.642847 19.3437 0.594146 19.2783C0.545557 19.213 0.515636 19.1398 0.504716 19.0649C0.493808 18.9901 0.501821 18.9137 0.528806 18.8413L0.52891 18.841C1.21697 16.9913 2.4946 15.3849 4.19062 14.2464C5.88695 13.1078 7.91669 12.4946 10 12.4946C12.0833 12.4946 14.1131 13.1078 15.8094 14.2464C17.5054 15.3849 18.783 16.9913 19.4711 18.841ZM6.61749 8.1728C5.72556 7.32661 5.22974 6.18473 5.22974 5C5.22974 3.81527 5.72556 2.67339 6.61749 1.8272C7.51031 0.98016 8.7266 0.5 10 0.5C11.2734 0.5 12.4897 0.98016 13.3825 1.8272C14.2744 2.67339 14.7703 3.81527 14.7703 5C14.7703 6.18473 14.2744 7.32661 13.3825 8.1728C12.4897 9.01984 11.2734 9.5 10 9.5C8.7266 9.5 7.51031 9.01984 6.61749 8.1728Z" stroke="#464646"/>
</svg>
