<svg width="22" height="22" viewBox="0 0 22 22" fill="none" xmlns="http://www.w3.org/2000/svg">
<path d="M11.1633 11.2879L9.35 6.57376C9.32279 6.50302 9.27478 6.44218 9.2123 6.39927C9.14982 6.35636 9.0758 6.33339 9 6.33339C8.9242 6.33339 8.85018 6.35636 8.7877 6.39927C8.72522 6.44218 8.67721 6.50302 8.65 6.57376L6.83667 11.2879C6.81783 11.3369 6.78893 11.3814 6.75182 11.4185C6.71471 11.4556 6.67023 11.4845 6.62125 11.5034L1.90708 13.3167C1.83634 13.3439 1.7755 13.3919 1.73259 13.4544C1.68968 13.5169 1.66671 13.5909 1.66671 13.6667C1.66671 13.7425 1.68968 13.8165 1.73259 13.879C1.7755 13.9415 1.83634 13.9895 1.90708 14.0167L6.62125 15.83C6.67023 15.8489 6.71471 15.8778 6.75182 15.9149C6.78893 15.952 6.81783 15.9965 6.83667 16.0455L8.65 20.7596C8.67721 20.8304 8.72522 20.8912 8.7877 20.9341C8.85018 20.977 8.9242 21 9 21C9.0758 21 9.14982 20.977 9.2123 20.9341C9.27478 20.8912 9.32279 20.8304 9.35 20.7596L11.1633 16.0455C11.1822 15.9965 11.2111 15.952 11.2482 15.9149C11.2853 15.8778 11.3298 15.8489 11.3788 15.83L16.0929 14.0167C16.1637 13.9895 16.2245 13.9415 16.2674 13.879C16.3103 13.8165 16.3333 13.7425 16.3333 13.6667C16.3333 13.5909 16.3103 13.5169 16.2674 13.4544C16.2245 13.3919 16.1637 13.3439 16.0929 13.3167L11.3788 11.5034C11.3298 11.4845 11.2853 11.4556 11.2482 11.4185C11.2111 11.3814 11.1822 11.3369 11.1633 11.2879ZM4.83333 3.16667L4 1L3.16667 3.16667L1 4.00001L3.16667 4.83334L4 7.00001L4.83333 4.83334L7 4.00001L4.83333 3.16667ZM18.1112 5.22209L17 2.33334L15.8888 5.22209L13 6.33335L15.8888 7.4446L17 10.3334L18.1112 7.4446L21 6.33335L18.1112 5.22209Z" stroke="#464646" stroke-linecap="round" stroke-linejoin="round"/>
</svg>
