<svg width="20" height="18" viewBox="0 0 20 18" fill="none" xmlns="http://www.w3.org/2000/svg">
<path d="M2.20929 10.2595L2.2098 10.26L9.26834 17.1952C9.47014 17.3934 9.73194 17.5 10 17.5C10.2681 17.5 10.5299 17.3934 10.7317 17.1952L17.7902 10.26L17.7907 10.2595C18.8789 9.19334 19.5 7.69145 19.5 6.11508V5.87665C19.5 3.22753 17.6842 1.00033 15.2496 0.572609L2.20929 10.2595ZM2.20929 10.2595C1.12108 9.19334 0.5 7.69145 0.5 6.11508V5.87665C0.5 3.22753 2.31583 1.00033 4.75045 0.572609L2.20929 10.2595ZM10 2.93961L9.63754 2.55815L9.16879 2.06483C8.00727 0.84243 6.36189 0.29 4.75057 0.572588L10 2.93961ZM10 2.93961L10.3625 2.55815L10.8312 2.06483L10.4688 1.72042M10 2.93961L10.4688 1.72042M10.4688 1.72042L10.8312 2.06483C11.9927 0.84243 13.6381 0.289999 15.2494 0.572588L10.4688 1.72042Z" stroke="#464646"/>
</svg>
