<svg width="22" height="22" viewBox="0 0 22 22" fill="none" xmlns="http://www.w3.org/2000/svg">
<path d="M19.4131 14.1062C19.365 13.9331 19.4708 13.6927 19.5717 13.5196C19.6026 13.4681 19.6363 13.4184 19.6727 13.3706C20.5363 12.0873 20.9982 10.5759 20.9996 9.02911C21.014 4.59627 17.2736 1 12.6486 1C8.61495 1 5.24955 3.74528 4.46109 7.38963C4.34313 7.92978 4.2835 8.48103 4.2832 9.03391C4.2832 13.4716 7.87937 17.164 12.5044 17.164C13.24 17.164 14.2304 16.9428 14.7736 16.7938C15.3169 16.6447 15.8554 16.4476 15.9948 16.3947C16.1377 16.3408 16.2892 16.3132 16.4419 16.313C16.6086 16.3124 16.7737 16.3451 16.9275 16.4092L19.6535 17.3755C19.7132 17.4008 19.7764 17.417 19.841 17.4236C19.943 17.4236 20.0408 17.3831 20.1129 17.311C20.1851 17.2388 20.2256 17.141 20.2256 17.039C20.2222 16.995 20.2142 16.9515 20.2015 16.9092L19.4131 14.1062Z" stroke="#464646" stroke-miterlimit="10" stroke-linecap="round"/>
<path d="M1.88753 9.8457C1.25697 10.9785 0.951934 12.2637 1.00615 13.5591C1.06037 14.8545 1.47172 16.1097 2.19475 17.1858C2.3058 17.3536 2.3683 17.4835 2.34907 17.5705C2.32984 17.6575 1.77551 20.5451 1.77551 20.5451C1.76218 20.6127 1.76724 20.6826 1.79016 20.7475C1.81308 20.8125 1.85301 20.8701 1.9058 20.9143C1.97624 20.9705 2.06382 21.0007 2.15388 20.9999C2.20201 21 2.24964 20.9902 2.29378 20.9711L4.9962 19.9133C5.18219 19.84 5.38968 19.8435 5.57313 19.923C6.48371 20.2778 7.49044 20.4999 8.49766 20.4999C9.84923 20.5013 11.1771 20.1448 12.3462 19.4667" stroke="#464646" stroke-miterlimit="10" stroke-linecap="round"/>
</svg>
