<svg width="22" height="20" viewBox="0 0 22 20" fill="none" xmlns="http://www.w3.org/2000/svg">
<path d="M3.14258 8.0957V18.3078C3.14258 18.4914 3.21783 18.6675 3.35179 18.7974C3.48574 18.9272 3.66742 19.0002 3.85686 19.0002H8.14258V13.1152C8.14258 12.8398 8.25546 12.5756 8.45639 12.3809C8.65732 12.1861 8.92985 12.0767 9.21401 12.0767H12.7854C13.0696 12.0767 13.3421 12.1861 13.543 12.3809C13.744 12.5756 13.8569 12.8398 13.8569 13.1152V19.0002H18.1426C18.332 19.0002 18.5137 18.9272 18.6477 18.7974C18.7816 18.6675 18.8569 18.4914 18.8569 18.3078V8.0957" stroke="#464646" stroke-linecap="round" stroke-linejoin="round"/>
<path d="M21 9.99976L11.4862 1.17233C11.2629 0.943856 10.7411 0.94126 10.5138 1.17233L1 9.99976M17.4286 6.66784V1.69159H15.2857V4.67734" stroke="#464646" stroke-linecap="round" stroke-linejoin="round"/>
</svg>
