<svg width="18" height="18" viewBox="0 0 18 18" fill="none" xmlns="http://www.w3.org/2000/svg">
<mask id="mask0_1107_744" style="mask-type:luminance" maskUnits="userSpaceOnUse" x="0" y="0" width="18" height="18">
<path d="M18 0H0V18H18V0Z" fill="white"/>
</mask>
<g mask="url(#mask0_1107_744)">
<path d="M17.64 9.20423C17.64 8.56604 17.5828 7.95242 17.4764 7.36328H9V10.8447H13.8436C13.635 11.9697 13.001 12.9229 12.0478 13.561V15.8192H14.9564C16.6582 14.2524 17.64 11.9451 17.64 9.20423Z" fill="#4285F4"/>
<path d="M8.99979 18.0009C11.4298 18.0009 13.467 17.195 14.9561 15.8205L12.0475 13.5623C11.2416 14.1023 10.2107 14.4214 8.99979 14.4214C6.65565 14.4214 4.6716 12.8382 3.96384 10.7109H0.957031V13.0427C2.43798 15.9841 5.4816 18.0009 8.99979 18.0009Z" fill="#34A853"/>
<path d="M3.96405 10.7108C3.78405 10.1708 3.68181 9.59398 3.68181 9.00079C3.68181 8.4076 3.78405 7.83079 3.96405 7.29079V4.95898H0.95724C0.34776 6.17398 0 7.54855 0 9.00079C0 10.453 0.34776 11.8276 0.95724 13.0426L3.96405 10.7108Z" fill="#FBBC04"/>
<path d="M8.99979 3.57957C10.3211 3.57957 11.5075 4.03362 12.4402 4.92543L15.0216 2.34405C13.463 0.89181 11.4257 0 8.99979 0C5.4816 0 2.43798 2.01681 0.957031 4.95819L3.96384 7.29C4.6716 5.16276 6.65565 3.57957 8.99979 3.57957Z" fill="#E94235"/>
</g>
</svg>
