<svg width="19" height="17" viewBox="0 0 19 17" fill="none" xmlns="http://www.w3.org/2000/svg">
<path d="M9.50296 0C4.25652 0 0 3.25156 0 7.26231C0 9.85361 1.78181 12.1311 4.4545 13.4162C4.30899 13.9028 3.51907 16.5468 3.48839 16.7541C3.48839 16.7541 3.46958 16.9106 3.5735 16.9701C3.60834 16.9872 3.64645 16.9971 3.68545 16.9994C3.72446 17.0018 3.76346 16.9964 3.80018 16.9835C4.09715 16.9432 7.26481 14.7857 7.8142 14.4114C8.37171 14.4876 8.93407 14.5258 9.49702 14.5256C14.7435 14.5256 19 11.274 19 7.26327C19 3.25252 14.7494 0 9.50296 0Z" fill="#3C1E1E"/>
<path d="M4.24687 9.79819C4.10472 9.80126 3.96713 9.74963 3.86428 9.65442C3.76143 9.55922 3.70184 9.42831 3.69847 9.29049V6.13007H2.84316C2.70088 6.13007 2.5644 6.07527 2.46379 5.97766C2.36316 5.88015 2.30664 5.7479 2.30664 5.60989C2.30664 5.47197 2.36316 5.33963 2.46379 5.24212C2.5644 5.14451 2.70088 5.08971 2.84316 5.08971H5.64955C5.7918 5.08971 5.92831 5.14451 6.02888 5.24212C6.12955 5.33963 6.18607 5.47197 6.18607 5.60989C6.18607 5.7479 6.12955 5.88015 6.02888 5.97766C5.92831 6.07527 5.7918 6.13007 5.64955 6.13007H4.79428V9.28665C4.7931 9.35518 4.77795 9.42274 4.74984 9.48551C4.72162 9.54837 4.68104 9.60519 4.63016 9.6527C4.57928 9.7002 4.51919 9.73754 4.45346 9.76249C4.38764 9.78744 4.31745 9.79963 4.24687 9.79819ZM9.05281 9.79147C8.96094 9.80261 8.86789 9.786 8.78623 9.74387C8.70456 9.70183 8.63834 9.63628 8.59647 9.55634L8.32523 8.86734H6.65429L6.38306 9.55634C6.34099 9.63609 6.27467 9.70145 6.193 9.7433C6.11134 9.78524 6.01839 9.80174 5.92672 9.79052C5.80645 9.79052 5.68756 9.76527 5.57828 9.71662C5.42683 9.64943 5.28131 9.46324 5.4486 8.96226L6.75922 5.61661C6.80664 5.46458 6.90325 5.33137 7.03481 5.23664C7.16637 5.14192 7.32584 5.09086 7.48976 5.09086C7.65359 5.09086 7.81306 5.14192 7.94462 5.23664C8.07618 5.33137 8.17279 5.46458 8.22031 5.61661L9.53092 8.96034C9.69822 9.46228 9.5527 9.64847 9.40125 9.71565C9.29187 9.76431 9.17308 9.78955 9.05281 9.78955V9.79147ZM8.03718 7.9267L7.48976 6.41895L6.94235 7.9267H8.03718ZM10.4129 9.72141C10.2765 9.72429 10.1446 9.67448 10.0461 9.58312C9.94747 9.49175 9.89036 9.36612 9.88729 9.23387V5.62428C9.88729 5.48051 9.94619 5.3425 10.051 5.24087C10.1559 5.13914 10.2982 5.08203 10.4466 5.08203C10.5949 5.08203 10.7371 5.13914 10.842 5.24087C10.9469 5.3425 11.0059 5.48051 11.0059 5.62428V8.74632H12.17C12.2378 8.74344 12.3056 8.7539 12.3691 8.77703C12.4327 8.80016 12.4908 8.83557 12.5399 8.88116C12.5889 8.92665 12.628 8.98126 12.6546 9.04182C12.6814 9.10238 12.6951 9.16755 12.6951 9.23339C12.6951 9.29922 12.6814 9.36439 12.6546 9.42495C12.628 9.48551 12.5889 9.54022 12.5399 9.58571C12.4908 9.6312 12.4327 9.66661 12.3691 9.68974C12.3056 9.71297 12.2378 9.72343 12.17 9.72045L10.4129 9.72141ZM13.4578 9.79243C13.3123 9.79243 13.1728 9.73638 13.07 9.63667C12.9671 9.53705 12.9094 9.40182 12.9094 9.26074V5.62524C12.9154 5.48829 12.9758 5.35882 13.0778 5.264C13.18 5.16908 13.3159 5.1161 13.4573 5.1161C13.5987 5.1161 13.7346 5.16908 13.8368 5.264C13.9388 5.35882 13.9992 5.48829 14.0052 5.62524V6.76733L15.5346 5.28454C15.5747 5.24643 15.6222 5.21639 15.6744 5.19614C15.7266 5.17589 15.7823 5.16582 15.8385 5.16649C15.9753 5.17013 16.1059 5.22254 16.2053 5.31371C16.3047 5.40498 16.3658 5.5286 16.377 5.66075C16.3819 5.71997 16.3737 5.77938 16.3529 5.83514C16.332 5.891 16.299 5.94186 16.2563 5.98419L15.007 7.19442L16.3562 8.92771C16.4381 9.04057 16.4717 9.17983 16.4496 9.31621C16.4276 9.4525 16.3518 9.57524 16.2381 9.65836C16.1245 9.74147 15.9821 9.77852 15.8408 9.76163C15.6995 9.74474 15.5706 9.67525 15.4812 9.56786L14.1943 7.91614L14.0043 8.10041V9.25978C14.004 9.40076 13.9461 9.5358 13.8433 9.63552C13.7405 9.73514 13.6012 9.79119 13.4559 9.79147L13.4578 9.79243Z" fill="#FFE812"/>
</svg>
