<svg width="34" height="34" viewBox="0 0 34 34" fill="none" xmlns="http://www.w3.org/2000/svg">
<path d="M21 25V29C21 30.0609 20.6488 31.0783 20.0237 31.8284C19.3986 32.5786 18.5507 33 17.6667 33H4.33333C3.44928 33 2.60143 32.5786 1.97631 31.8284C1.35119 31.0783 1 30.0609 1 29V5C1 3.93913 1.35119 2.92172 1.97631 2.17157C2.60143 1.42143 3.44928 1 4.33333 1H17C18.8408 1 21 2.791 21 5V9M26.3333 25L33 17L26.3333 9M10.3333 17H31.6667" stroke="black" stroke-width="2" stroke-linecap="round" stroke-linejoin="round"/>
</svg>
