<svg version="1.1" xmlns="http://www.w3.org/2000/svg" xmlns:xlink="http://www.w3.org/1999/xlink" width="26" height="26" viewBox="0,0,256,256"><g fill="none" fill-rule="nonzero" stroke="#9d88b3" stroke-width="3" stroke-linecap="round" stroke-linejoin="round" stroke-miterlimit="10" stroke-dasharray="" stroke-dashoffset="0" font-family="none" font-weight="none" font-size="none" text-anchor="none" style="mix-blend-mode: normal"><g transform="scale(7.52941,7.52941)"><path d="M21,25v4c0,1.0609 -0.3512,2.0783 -0.9763,2.8284c-0.6251,0.7502 -1.473,1.1716 -2.357,1.1716h-13.33337c-0.88405,0 -1.7319,-0.4214 -2.35702,-1.1716c-0.62512,-0.7501 -0.97631,-1.7675 -0.97631,-2.8284v-24c0,-1.06087 0.35119,-2.07828 0.97631,-2.82843c0.62512,-0.75014 1.47297,-1.17157 2.35702,-1.17157h12.66667c1.8408,0 4,1.791 4,4v4M26.3333,25l6.6667,-8l-6.6667,-8M10.3333,17h21.3334"></path></g></g></svg>